<svg width="178" height="54" viewBox="0 0 178 54" fill="none" xmlns="http://www.w3.org/2000/svg">
<path d="M102.156 28.3457C100.264 28.3457 98.4958 27.8725 96.9228 26.9584C95.3709 26.0444 94.2852 24.8145 93.3711 23.284C92.4571 21.7324 92 20.0319 92 18.1826C92 16.3121 92.2078 15.0325 93.2289 13.2405C94.2199 11.5012 95.3836 10.2815 96.9228 9.3872C98.4958 8.4732 100.264 8 102.156 8C103.495 8 104.872 8.26669 106.062 8.71306C107.253 9.15944 108.305 9.80774 109.219 10.658L107.88 15.9507C107.348 15.0367 106.615 14.2502 105.679 13.5913C104.744 12.9111 103.66 12.571 102.427 12.571C101.364 12.571 100.408 12.8261 99.5572 13.3362C98.7281 13.8464 98.0691 14.5266 97.5802 15.3768C97.0913 16.2058 96.8468 17.1411 96.8468 18.1826C96.8468 19.2029 97.0913 20.1382 97.5802 20.9884C98.0691 21.8386 98.7281 22.5188 99.5572 23.029C100.408 23.5391 101.364 23.7942 102.427 23.7942C103.66 23.7942 104.744 23.4647 105.679 22.8058C106.615 22.1256 107.348 21.3285 107.88 20.4145L109.219 25.7072C108.305 26.5575 107.253 27.2058 106.062 27.6521C104.872 28.0985 103.495 28.3457 102.156 28.3457Z" fill="white"/>
<path d="M122.472 28.3457C120.58 28.3457 118.903 27.8647 117.33 26.9507C115.778 26.0367 114.545 24.8145 113.631 23.284C112.717 21.7536 112.26 20.0531 112.26 18.1826C112.26 16.3121 112.717 14.6116 113.631 13.0812C114.545 11.5507 115.778 10.3285 117.33 9.41451C118.903 8.5005 120.625 8.0435 122.495 8.0435C124.409 8.0435 126.141 8.5005 127.693 9.41451C129.245 10.3285 130.478 11.5507 131.392 13.0812C132.327 14.5903 132.795 16.2908 132.795 18.1826C132.795 20.0319 132.181 21.7324 131.245 23.284C130.331 24.8145 129.245 26.0367 127.693 26.9507C126.141 27.8647 124.364 28.3457 122.472 28.3457ZM122.495 23.7942C123.537 23.7942 124.472 23.5391 125.301 23.029C126.131 22.5188 126.79 21.8386 127.278 20.9884C127.767 20.1382 128.012 19.2029 128.012 18.1826C128.012 17.1411 127.767 16.2058 127.278 15.3768C126.79 14.5266 126.131 13.8464 125.301 13.3362C124.472 12.8261 123.537 12.571 122.495 12.571C121.475 12.571 120.55 12.8261 119.721 13.3362C118.892 13.8464 118.233 14.5266 117.744 15.3768C117.255 16.2058 117.011 17.1411 117.011 18.1826C117.011 19.2029 117.255 20.1382 117.744 20.9884C118.233 21.8386 118.892 22.5188 119.721 23.029C120.55 23.5391 121.475 23.7942 122.495 23.7942Z" fill="white"/>
<path d="M168.549 28.3217C166.444 28.3217 164.574 27.8753 162.937 26.9826C161.321 26.0898 160.056 24.8676 159.142 23.3159C158.249 21.743 157.803 19.9681 157.803 17.9913C157.803 16.0995 158.239 14.4097 159.11 12.9217C160.003 11.4126 161.204 10.2222 162.713 9.35074C164.223 8.47924 165.892 8.0435 167.72 8.0435C169.59 8.0435 171.259 8.47924 172.726 9.35074C174.214 10.201 175.394 11.3594 176.265 12.8261C177.137 14.2928 177.265 15.9612 177.265 17.8317V19.4H165.679C165.147 19.4 164.662 19.4 163.966 19.4C163.271 19.4 163.271 19.4 162.575 19.4C162.83 20.7816 163.511 21.8493 164.595 22.742C165.679 23.6348 167.039 24.0811 168.676 24.0811C169.888 24.0811 170.983 23.8261 171.961 23.3159C172.938 22.8058 173.746 22.1681 174.384 21.4029L175.532 26.0898C174.575 26.8338 173.502 27.3864 172.311 27.7478C171.121 28.1304 169.867 28.3217 168.549 28.3217ZM162.462 16.2377C163.595 16.2377 164.564 16.2377 165.627 16.2377H169.741C170.315 16.2377 170.967 16.2377 171.461 16.2377C171.989 16.2377 172.445 16.2377 172.896 16.2377C172.578 15.0048 171.939 13.9527 171.004 13.2087C170.09 12.4647 168.985 12.0928 167.688 12.0928C166.412 12.0928 165.307 12.4754 164.372 13.2406C163.436 14.0058 162.803 15.0048 162.462 16.2377Z" fill="white"/>
<path d="M168.549 28.3217C166.444 28.3217 164.574 27.8753 162.937 26.9826C161.321 26.0898 160.056 24.8676 159.142 23.3159C158.249 21.743 157.803 19.9681 157.803 17.9913C157.803 16.0995 158.239 14.4097 159.11 12.9217C160.003 11.4126 161.204 10.2222 162.713 9.35074C164.223 8.47924 165.892 8.0435 167.72 8.0435C169.59 8.0435 171.259 8.47924 172.726 9.35074C174.214 10.201 175.394 11.3594 176.265 12.8261C177.137 14.2928 177.265 15.9612 177.265 17.8317V19.4H165.679C165.147 19.4 164.662 19.4 163.966 19.4C163.271 19.4 163.271 19.4 162.575 19.4C162.83 20.7816 163.511 21.8493 164.595 22.742C165.679 23.6348 167.039 24.0811 168.676 24.0811C169.888 24.0811 170.983 23.8261 171.961 23.3159C172.938 22.8058 173.746 22.1681 174.384 21.4029L175.532 26.0898C174.575 26.8338 173.502 27.3864 172.311 27.7478C171.121 28.1304 169.867 28.3217 168.549 28.3217ZM162.462 16.2377C163.595 16.2377 164.564 16.2377 165.627 16.2377H169.741C170.315 16.2377 170.967 16.2377 171.461 16.2377C171.989 16.2377 172.445 16.2377 172.896 16.2377C172.578 15.0048 171.939 13.9527 171.004 13.2087C170.09 12.4647 168.985 12.0928 167.688 12.0928C166.412 12.0928 165.307 12.4754 164.372 13.2406C163.436 14.0058 162.803 15.0048 162.462 16.2377Z" fill="white"/>
<path d="M136.632 28.3128V8.03463H143.639C145.287 8.03463 146.783 8.28712 148.126 8.79211C149.485 9.2971 150.653 9.99687 151.63 10.8914C152.622 11.7716 153.385 12.8032 153.919 13.9863C154.453 15.1694 154.721 16.9619 154.721 18.3038C154.721 19.6456 154.453 20.9081 153.919 22.0912C153.385 23.2743 152.622 24.5313 151.63 25.4259C150.653 26.306 149.485 27.0504 148.126 27.5554C146.783 28.0603 145.287 28.3128 143.639 28.3128H136.632ZM140.907 24.2977C142.067 24.2977 145.587 24.352 146.472 24.0346C147.358 23.7027 147.966 23.2815 148.561 22.7188C149.172 22.1417 149.63 21.478 149.935 20.7277C150.256 19.9775 150.409 19.0394 150.409 18.1737C150.409 17.308 150.256 16.1001 149.935 15.3498C149.63 14.5851 149.172 13.9214 148.561 13.3587C147.966 12.7815 147.358 12.526 146.472 12.2085C145.587 11.8911 142.067 11.7341 140.907 11.7341V24.2977Z" fill="white"/>
<path d="M102.156 28.3457C100.264 28.3457 98.4958 27.8725 96.9228 26.9584C95.3709 26.0444 94.2852 24.8145 93.3711 23.284C92.4571 21.7324 92 20.0319 92 18.1826C92 16.3121 92.2078 15.0325 93.2289 13.2405C94.2199 11.5012 95.3836 10.2815 96.9228 9.3872C98.4958 8.4732 100.264 8 102.156 8C103.495 8 104.872 8.26669 106.062 8.71306C107.253 9.15944 108.305 9.80774 109.219 10.658L107.88 15.9507C107.348 15.0367 106.615 14.2502 105.679 13.5913C104.744 12.9111 103.66 12.571 102.427 12.571C101.364 12.571 100.408 12.8261 99.5572 13.3362C98.7281 13.8464 98.0691 14.5266 97.5802 15.3768C97.0913 16.2058 96.8468 17.1411 96.8468 18.1826C96.8468 19.2029 97.0913 20.1382 97.5802 20.9884C98.0691 21.8386 98.7281 22.5188 99.5572 23.029C100.408 23.5391 101.364 23.7942 102.427 23.7942C103.66 23.7942 104.744 23.4647 105.679 22.8058C106.615 22.1256 107.348 21.3285 107.88 20.4145L109.219 25.7072C108.305 26.5575 107.253 27.2058 106.062 27.6521C104.872 28.0985 103.495 28.3457 102.156 28.3457Z" fill="white"/>
<path d="M122.472 28.3457C120.58 28.3457 118.903 27.8647 117.33 26.9507C115.778 26.0367 114.545 24.8145 113.631 23.284C112.717 21.7536 112.26 20.0531 112.26 18.1826C112.26 16.3121 112.717 14.6116 113.631 13.0812C114.545 11.5507 115.778 10.3285 117.33 9.41451C118.903 8.5005 120.625 8.0435 122.495 8.0435C124.409 8.0435 126.141 8.5005 127.693 9.41451C129.245 10.3285 130.478 11.5507 131.392 13.0812C132.327 14.5903 132.795 16.2908 132.795 18.1826C132.795 20.0319 132.181 21.7324 131.245 23.284C130.331 24.8145 129.245 26.0367 127.693 26.9507C126.141 27.8647 124.364 28.3457 122.472 28.3457ZM122.495 23.7942C123.537 23.7942 124.472 23.5391 125.301 23.029C126.131 22.5188 126.79 21.8386 127.278 20.9884C127.767 20.1382 128.012 19.2029 128.012 18.1826C128.012 17.1411 127.767 16.2058 127.278 15.3768C126.79 14.5266 126.131 13.8464 125.301 13.3362C124.472 12.8261 123.537 12.571 122.495 12.571C121.475 12.571 120.55 12.8261 119.721 13.3362C118.892 13.8464 118.233 14.5266 117.744 15.3768C117.255 16.2058 117.011 17.1411 117.011 18.1826C117.011 19.2029 117.255 20.1382 117.744 20.9884C118.233 21.8386 118.892 22.5188 119.721 23.029C120.55 23.5391 121.475 23.7942 122.495 23.7942Z" fill="white"/>
<path d="M136.632 28.3128V8.03463H143.639C145.287 8.03463 146.783 8.28712 148.126 8.79211C149.485 9.2971 150.653 9.99687 151.63 10.8914C152.622 11.7716 153.385 12.8032 153.919 13.9863C154.453 15.1694 154.721 16.9619 154.721 18.3038C154.721 19.6456 154.453 20.9081 153.919 22.0912C153.385 23.2743 152.622 24.5313 151.63 25.4259C150.653 26.306 149.485 27.0504 148.126 27.5554C146.783 28.0603 145.287 28.3128 143.639 28.3128H136.632ZM140.907 24.2977C142.067 24.2977 145.587 24.352 146.472 24.0346C147.358 23.7027 147.966 23.2815 148.561 22.7188C149.172 22.1417 149.63 21.478 149.935 20.7277C150.256 19.9775 150.409 19.0394 150.409 18.1737C150.409 17.308 150.256 16.1001 149.935 15.3498C149.63 14.5851 149.172 13.9214 148.561 13.3587C147.966 12.7815 147.358 12.526 146.472 12.2085C145.587 11.8911 142.067 11.7341 140.907 11.7341V24.2977Z" fill="white"/>
<path d="M102.156 53.8105C100.264 53.8105 98.6431 53.3545 97.07 52.4405C95.5182 51.5265 94.2852 50.3043 93.3711 48.7739C92.457 47.2222 92 45.5217 92 43.6724C92 41.8019 92.3148 40.0468 93.2289 38.5164C94.1429 36.9859 95.295 35.7661 96.8468 34.8521C98.4199 33.9381 100.264 33.4649 102.156 33.4649C103.495 33.4649 104.872 33.7565 106.062 34.2029C107.253 34.6493 108.305 35.2976 109.219 36.1478L107.88 41.4406C107.348 40.5265 106.615 39.7401 105.679 39.0811C104.744 38.4009 103.66 38.0609 102.427 38.0609C101.364 38.0609 100.408 38.3159 99.5572 38.8261C98.7281 39.3362 98.0691 40.0164 97.5802 40.8666C97.0913 41.6956 96.8468 42.6309 96.8468 43.6724C96.8468 44.6927 97.0913 45.628 97.5802 46.4782C98.0691 47.3285 98.7281 48.0087 99.5572 48.5188C100.408 49.0289 101.364 49.284 102.427 49.284C103.66 49.284 104.744 48.9545 105.679 48.2956C106.615 47.6154 107.348 46.8183 107.88 45.9043L109.219 51.197C108.305 52.0473 107.253 52.6956 106.062 53.142C104.872 53.5884 103.495 53.8105 102.156 53.8105Z" fill="white"/>
<path d="M102.156 53.8105C100.264 53.8105 98.6431 53.3545 97.07 52.4405C95.5182 51.5265 94.2852 50.3043 93.3711 48.7739C92.457 47.2222 92 45.5217 92 43.6724C92 41.8019 92.3148 40.0468 93.2289 38.5164C94.1429 36.9859 95.295 35.7661 96.8468 34.8521C98.4199 33.9381 100.264 33.4649 102.156 33.4649C103.495 33.4649 104.872 33.7565 106.062 34.2029C107.253 34.6493 108.305 35.2976 109.219 36.1478L107.88 41.4406C107.348 40.5265 106.615 39.7401 105.679 39.0811C104.744 38.4009 103.66 38.0609 102.427 38.0609C101.364 38.0609 100.408 38.3159 99.5572 38.8261C98.7281 39.3362 98.0691 40.0164 97.5802 40.8666C97.0913 41.6956 96.8468 42.6309 96.8468 43.6724C96.8468 44.6927 97.0913 45.628 97.5802 46.4782C98.0691 47.3285 98.7281 48.0087 99.5572 48.5188C100.408 49.0289 101.364 49.284 102.427 49.284C103.66 49.284 104.744 48.9545 105.679 48.2956C106.615 47.6154 107.348 46.8183 107.88 45.9043L109.219 51.197C108.305 52.0473 107.253 52.6956 106.062 53.142C104.872 53.5884 103.495 53.8105 102.156 53.8105Z" fill="white"/>
<path d="M121.857 53.8105C120.087 53.8105 118.452 53.3117 116.984 52.4052C115.517 51.4771 114.34 50.2468 113.455 48.7144C112.592 47.1604 112.16 45.4554 112.16 43.5992C112.16 41.7431 112.592 40.0488 113.455 38.5164C114.34 36.9624 115.517 35.7321 116.984 34.8256C118.452 33.8975 120.087 33.4649 121.857 33.4649C123.13 33.4649 124.291 33.6601 125.37 34.1134C126.449 34.5666 127.367 35.2033 128.122 36.0235V33.4659H132.557V53.7458L128.122 53.7781V51.1749C127.367 51.9735 126.449 52.6102 125.37 53.085C124.291 53.5383 123.13 53.8105 121.857 53.8105ZM122.456 49.2648C123.492 49.2648 124.42 49.0058 125.241 48.4878C126.082 47.9698 126.752 47.2899 127.248 46.4482C127.745 45.5849 127.993 44.6352 127.993 43.5992C127.993 42.5632 127.745 41.6243 127.248 40.7826C126.752 39.9193 126.082 39.2286 125.241 38.7106C124.42 38.1926 123.503 37.9336 122.489 37.9336C121.452 37.9336 120.514 38.1926 119.672 38.7106C118.851 39.2286 118.193 39.9193 117.697 40.7826C117.2 41.6243 116.952 42.5632 116.952 43.5992C116.952 44.6352 117.2 45.5849 117.697 46.4482C118.193 47.2899 118.851 47.9698 119.672 48.4878C120.514 49.0058 121.442 49.2648 122.456 49.2648Z" fill="white"/>
<path d="M168.549 53.7781C166.444 53.7781 164.574 53.3318 162.937 52.439C161.321 51.5463 160.056 50.324 159.142 48.7724C158.249 47.1994 157.803 45.4245 157.803 43.4477C157.803 41.5559 158.239 39.8661 159.11 38.3782C160.003 36.869 161.204 35.6787 162.713 34.8072C164.223 33.9357 165.892 33.4999 167.72 33.4999C169.59 33.4999 171.259 33.9357 172.726 34.8072C174.214 35.6574 175.394 36.8159 176.265 38.2825C177.137 39.7492 177.265 41.4177 177.265 43.2882V44.8564H165.679C165.147 44.8564 164.662 44.8564 163.966 44.8564C163.271 44.8564 163.271 44.8564 162.575 44.8564C162.83 46.2381 163.511 47.3057 164.595 48.1984C165.679 49.0912 167.039 49.5376 168.676 49.5376C169.888 49.5376 170.983 49.2825 171.961 48.7724C172.938 48.2622 173.746 47.6245 174.384 46.8593L175.532 51.5463C174.575 52.2902 173.502 52.8429 172.311 53.2042C171.121 53.5868 169.867 53.7781 168.549 53.7781ZM162.462 41.6941C163.595 41.6941 164.564 41.6941 165.627 41.6941H169.741C170.315 41.6941 170.967 41.6941 171.461 41.6941C171.989 41.6941 172.445 41.6941 172.896 41.6941C172.578 40.4613 171.939 39.4091 171.004 38.6651C170.09 37.9212 168.985 37.5492 167.688 37.5492C166.412 37.5492 165.307 37.9318 164.372 38.697C163.436 39.4622 162.803 40.4613 162.462 41.6941Z" fill="white"/>
<path d="M168.549 53.7781C166.444 53.7781 164.574 53.3318 162.937 52.439C161.321 51.5463 160.056 50.324 159.142 48.7724C158.249 47.1994 157.803 45.4245 157.803 43.4477C157.803 41.5559 158.239 39.8661 159.11 38.3782C160.003 36.869 161.204 35.6787 162.713 34.8072C164.223 33.9357 165.892 33.4999 167.72 33.4999C169.59 33.4999 171.259 33.9357 172.726 34.8072C174.214 35.6574 175.394 36.8159 176.265 38.2825C177.137 39.7492 177.265 41.4177 177.265 43.2882V44.8564H165.679C165.147 44.8564 164.662 44.8564 163.966 44.8564C163.271 44.8564 163.271 44.8564 162.575 44.8564C162.83 46.2381 163.511 47.3057 164.595 48.1984C165.679 49.0912 167.039 49.5376 168.676 49.5376C169.888 49.5376 170.983 49.2825 171.961 48.7724C172.938 48.2622 173.746 47.6245 174.384 46.8593L175.532 51.5463C174.575 52.2902 173.502 52.8429 172.311 53.2042C171.121 53.5868 169.867 53.7781 168.549 53.7781ZM162.462 41.6941C163.595 41.6941 164.564 41.6941 165.627 41.6941H169.741C170.315 41.6941 170.967 41.6941 171.461 41.6941C171.989 41.6941 172.445 41.6941 172.896 41.6941C172.578 40.4613 171.939 39.4091 171.004 38.6651C170.09 37.9212 168.985 37.5492 167.688 37.5492C166.412 37.5492 165.307 37.9318 164.372 38.697C163.436 39.4622 162.803 40.4613 162.462 41.6941Z" fill="white"/>
<path d="M145.561 53.7777L136.632 33.4185L141.557 33.4321L145.561 44.0673L149.871 33.4321H154.794L145.561 53.7777Z" fill="white"/>
<path d="M145.561 53.7777L136.632 33.4185L141.557 33.4321L145.561 44.0673L149.871 33.4321H154.794L145.561 53.7777Z" fill="white"/>
<path d="M60.6791 53.9955H76V40.7334L47.3113 4.2628L30.6119 0V16.1039L60.6791 53.9955Z" fill="#5F20FE"/>
<path d="M45.6817 54L51.2746 47.1263L45.5642 39.8231H29.4865L23.3096 46.6965L29.4865 54H45.6817Z" fill="#5F20FE"/>
<path d="M13.4478 53.9986H0V41.6838L15.6891 23.6853L29.5852 20.8434V35.5264L13.4478 53.9986Z" fill="#5F20FE"/>
<path d="M45.6817 54L51.2746 47.1263L45.5642 39.8231H29.4865L23.3096 46.6965L29.4865 54H45.6817Z" fill="#5F20FE"/>
<path d="M45.6817 54L51.2746 47.1263L45.5642 39.8231H29.4865L23.3096 46.6965L29.4865 54H45.6817Z" fill="#5F20FE"/>
</svg>
