<svg width="84" height="24" viewBox="0 0 84 24" fill="none" xmlns="http://www.w3.org/2000/svg">
<path d="M13.7097 5.92244V0H18.7167L34 18.0776V24H28.993L13.7097 5.92244Z" fill="#5F20FE"/>
<path d="M13.7097 13.7062V7.78378H8.70267L0 18.0776V24H5.00701L13.7097 13.7062Z" fill="#5F20FE"/>
<path d="M13.0644 24L9.87097 20.1081L13.0644 16.2162L20.9356 16.2162L24.129 20.1081L20.9356 24H13.0644Z" fill="#5F20FE"/>
<path d="M47.1332 9.90304C46.2069 9.90304 45.3588 9.67986 44.5886 9.23349C43.8289 8.78713 43.2253 8.19025 42.7778 7.44285C42.3303 6.68507 42.1065 5.85463 42.1065 4.95152C42.1065 4.03803 42.3303 3.20759 42.7778 2.46019C43.2253 1.71279 43.8289 1.11591 44.5886 0.669545C45.3588 0.223181 46.2069 0 47.1332 0C47.7888 0 48.408 0.108996 48.9908 0.326987C49.5736 0.544979 50.0888 0.861585 50.5363 1.27681L49.8807 3.86156C49.6205 3.4152 49.2614 3.03112 48.8035 2.70932C48.3456 2.37714 47.8148 2.21106 47.2112 2.21106C46.6909 2.21106 46.2225 2.33562 45.8063 2.58475C45.4004 2.83389 45.0778 3.16607 44.8384 3.58129C44.599 3.98613 44.4793 4.44287 44.4793 4.95152C44.4793 5.44978 44.599 5.90653 44.8384 6.32175C45.0778 6.73697 45.4004 7.06915 45.8063 7.31828C46.2225 7.56742 46.6909 7.69198 47.2112 7.69198C47.8148 7.69198 48.3456 7.53108 48.8035 7.20929C49.2614 6.87711 49.6205 6.48784 49.8807 6.04148L50.5363 8.62623C50.0888 9.04145 49.5736 9.35806 48.9908 9.57605C48.408 9.79404 47.7888 9.90304 47.1332 9.90304Z" fill="white"/>
<path d="M57.0516 9.90304C56.1254 9.90304 55.2772 9.67986 54.5071 9.23349C53.7474 8.78713 53.1438 8.19025 52.6963 7.44285C52.2488 6.69545 52.025 5.86501 52.025 4.95152C52.025 4.03803 52.2488 3.20759 52.6963 2.46019C53.1438 1.71279 53.7474 1.11591 54.5071 0.669545C55.2772 0.223181 56.1202 0 57.036 0C57.9727 0 58.8209 0.223181 59.5806 0.669545C60.3403 1.11591 60.9439 1.71279 61.3914 2.46019C61.8493 3.19721 62.0783 4.02765 62.0783 4.95152C62.0783 5.85463 61.8493 6.68507 61.3914 7.44285C60.9439 8.19025 60.3403 8.78713 59.5806 9.23349C58.8209 9.67986 57.9779 9.90304 57.0516 9.90304ZM57.036 7.69198C57.546 7.69198 58.0039 7.56742 58.4098 7.31828C58.8157 7.06915 59.1383 6.73697 59.3776 6.32175C59.617 5.90653 59.7367 5.44978 59.7367 4.95152C59.7367 4.44287 59.617 3.98613 59.3776 3.58129C59.1383 3.16607 58.8157 2.83389 58.4098 2.58475C58.0039 2.33562 57.546 2.21106 57.036 2.21106C56.5365 2.21106 56.0838 2.33562 55.6779 2.58475C55.272 2.83389 54.9494 3.16607 54.71 3.58129C54.4707 3.98613 54.351 4.44287 54.351 4.95152C54.351 5.44978 54.4707 5.90653 54.71 6.32175C54.9494 6.73697 55.272 7.06915 55.6779 7.31828C56.0838 7.56742 56.5365 7.69198 57.036 7.69198Z" fill="white"/>
<path d="M79.5822 9.90304C78.5519 9.90304 77.636 9.68505 76.8347 9.24906C76.0437 8.81308 75.4245 8.2162 74.977 7.45842C74.5399 6.69026 74.3214 5.82348 74.3214 4.85809C74.3214 3.93423 74.5347 3.10897 74.9614 2.38233C75.3985 1.64532 75.9865 1.06401 76.7254 0.638403C77.4643 0.212801 78.2813 0 79.1763 0C80.0921 0 80.9091 0.212801 81.6272 0.638403C82.3557 1.05362 82.9333 1.61936 83.36 2.33562C83.7867 3.05188 84 3.86675 84 4.78024V5.54604H78.1772C77.917 5.54604 77.6793 5.54604 77.3387 5.54604C76.9981 5.54604 76.9982 5.54604 76.6576 5.54604C76.7824 6.22078 77.1157 6.74216 77.6464 7.17815C78.1772 7.61413 78.8433 7.83212 79.6446 7.83212C80.2378 7.83212 80.7738 7.70755 81.2525 7.45842C81.7312 7.20929 82.1267 6.89787 82.4389 6.52417L83.0009 8.81308C82.5326 9.1764 82.007 9.44629 81.4242 9.62276C80.8414 9.80961 80.2274 9.90304 79.5822 9.90304ZM76.6025 4.0017C77.1571 4.0017 77.6316 4.0017 78.1519 4.0017H80.1657C80.4467 4.0017 80.766 4.0017 81.0078 4.0017C81.2663 4.0017 81.4899 4.0017 81.7106 4.0017C81.5545 3.39963 81.2421 2.88579 80.7842 2.52247C80.3367 2.15915 79.7955 1.97749 79.1607 1.97749C78.5363 1.97749 77.9951 2.16434 77.5372 2.53804C77.0793 2.91174 76.769 3.39963 76.6025 4.0017Z" fill="white"/>
<path d="M47.0266 23.7197C46.1004 23.7197 45.2522 23.4965 44.4821 23.0502C43.7224 22.6038 43.1188 22.0069 42.6713 21.2595C42.2238 20.5018 42 19.6713 42 18.7682C42 17.8547 42.2238 17.0243 42.6713 16.2769C43.1188 15.5295 43.7224 14.9326 44.4821 14.4862C45.2522 14.0399 46.1004 13.8167 47.0266 13.8167C47.6823 13.8167 48.3015 13.9257 48.8843 14.1437C49.4671 14.3617 49.9823 14.6783 50.4298 15.0935L49.7741 17.6783C49.5139 17.2319 49.1549 16.8478 48.697 16.526C48.2391 16.1938 47.7083 16.0278 47.1047 16.0278C46.5843 16.0278 46.116 16.1523 45.6997 16.4015C45.2939 16.6506 44.9712 16.9828 44.7319 17.398C44.4925 17.8028 44.3728 18.2596 44.3728 18.7682C44.3728 19.2665 44.4925 19.7232 44.7319 20.1384C44.9712 20.5537 45.2939 20.8858 45.6997 21.135C46.116 21.3841 46.5843 21.5087 47.1047 21.5087C47.7083 21.5087 48.2391 21.3478 48.697 21.026C49.1549 20.6938 49.5139 20.3045 49.7741 19.8582L50.102 21.1505L50.4298 22.4429C49.9823 22.8581 49.4671 23.1748 48.8843 23.3927C48.3015 23.6107 47.6823 23.7197 47.0266 23.7197Z" fill="white"/>
<path d="M56.6926 23.7197C55.8392 23.7197 55.0587 23.5017 54.351 23.0658C53.6433 22.6194 53.0761 22.0277 52.6494 21.2907C52.2331 20.5433 52.025 19.7232 52.025 18.8305C52.025 17.9378 52.2331 17.1229 52.6494 16.3859C53.0761 15.6385 53.6433 15.0468 54.351 14.6108C55.0587 14.1644 55.8392 13.9413 56.6926 13.9413C57.3066 13.9413 57.8738 14.0503 58.3942 14.2682C58.9145 14.4862 59.3568 14.7925 59.7211 15.1869V14.1593L62.0783 14.1437V23.4862L59.7211 23.5017V22.4741C59.3568 22.8581 58.9145 23.1644 58.3942 23.3927C57.8738 23.6107 57.3066 23.7197 56.6926 23.7197ZM56.9892 21.5554C57.4888 21.5554 57.9363 21.4308 58.3317 21.1817C58.7376 20.9326 59.0602 20.6056 59.2996 20.2007C59.539 19.7855 59.6586 19.3288 59.6586 18.8305C59.6586 18.3322 59.539 17.8807 59.2996 17.4758C59.0602 17.0606 58.7376 16.7284 58.3317 16.4793C57.9363 16.2302 57.494 16.1056 57.0048 16.1056C56.5053 16.1056 56.0526 16.2302 55.6467 16.4793C55.2512 16.7284 54.9338 17.0606 54.6944 17.4758C54.4551 17.8807 54.3354 18.3322 54.3354 18.8305C54.3354 19.3288 54.4551 19.7855 54.6944 20.2007C54.9338 20.6056 55.2512 20.9326 55.6467 21.1817C56.0526 21.4308 56.5001 21.5554 56.9892 21.5554Z" fill="white"/>
<path d="M68.7662 23.9066L63.7395 14.097H66.4714L68.0481 17.3668C68.1938 17.6471 68.3291 17.9274 68.4539 18.2077C68.5788 18.4879 68.7037 18.8149 68.8286 19.1886C68.9535 18.8149 69.0784 18.4879 69.2033 18.2077C69.3281 17.9274 69.4634 17.6471 69.6091 17.3668L71.1858 14.097H73.7928L68.7662 23.9066Z" fill="white"/>
<path d="M79.5822 9.90304C78.5519 9.90304 77.636 9.68505 76.8347 9.24906C76.0437 8.81308 75.4245 8.2162 74.977 7.45842C74.5399 6.69026 74.3214 5.82348 74.3214 4.85809C74.3214 3.93423 74.5347 3.10897 74.9614 2.38233C75.3985 1.64532 75.9865 1.06401 76.7254 0.638403C77.4643 0.212801 78.2813 0 79.1763 0C80.0921 0 80.9091 0.212801 81.6272 0.638403C82.3557 1.05362 82.9333 1.61936 83.36 2.33562C83.7867 3.05188 84 3.86675 84 4.78024V5.54604H78.1772C77.917 5.54604 77.6793 5.54604 77.3387 5.54604C76.9981 5.54604 76.9982 5.54604 76.6576 5.54604C76.7824 6.22078 77.1157 6.74216 77.6464 7.17815C78.1772 7.61413 78.8433 7.83212 79.6446 7.83212C80.2378 7.83212 80.7738 7.70755 81.2525 7.45842C81.7312 7.20929 82.1267 6.89787 82.4389 6.52417L83.0009 8.81308C82.5326 9.1764 82.007 9.44629 81.4242 9.62276C80.8414 9.80961 80.2274 9.90304 79.5822 9.90304ZM76.6025 4.0017C77.1571 4.0017 77.6316 4.0017 78.1519 4.0017H80.1657C80.4467 4.0017 80.766 4.0017 81.0078 4.0017C81.2663 4.0017 81.4899 4.0017 81.7106 4.0017C81.5545 3.39963 81.2421 2.88579 80.7842 2.52247C80.3367 2.15915 79.7955 1.97749 79.1607 1.97749C78.5363 1.97749 77.9951 2.16434 77.5372 2.53804C77.0793 2.91174 76.769 3.39963 76.6025 4.0017Z" fill="white"/>
<path d="M79.5822 24C78.5518 24 77.636 23.782 76.8347 23.346C76.0437 22.91 75.4245 22.3132 74.977 21.5554C74.5399 20.7872 74.3214 19.9205 74.3214 18.9551C74.3214 18.0312 74.5347 17.2059 74.9614 16.4793C75.3985 15.7423 75.9865 15.161 76.7254 14.7354C77.4643 14.3098 78.2813 14.097 79.1763 14.097C80.0921 14.097 80.9091 14.3098 81.6272 14.7354C82.3557 15.1506 82.9333 15.7163 83.36 16.4326C83.7867 17.1488 84 17.9637 84 18.8772V19.643H78.1772C77.917 19.643 77.6793 19.643 77.3387 19.643C76.9981 19.643 76.9981 19.643 76.6575 19.643C76.7824 20.3177 77.1157 20.8391 77.6464 21.2751C78.1772 21.7111 78.8433 21.9291 79.6446 21.9291C80.2378 21.9291 80.7738 21.8045 81.2525 21.5554C81.7312 21.3063 82.1267 20.9948 82.4389 20.6211L83.0009 22.91C82.5326 23.2734 82.007 23.5433 81.4242 23.7197C80.8414 23.9066 80.2274 24 79.5822 24ZM76.6025 18.0987C77.1571 18.0987 77.6315 18.0987 78.1519 18.0987H80.1657C80.4467 18.0987 80.766 18.0987 81.0078 18.0987C81.2663 18.0987 81.4899 18.0987 81.7106 18.0987C81.5545 17.4966 81.2421 16.9828 80.7842 16.6194C80.3367 16.2561 79.7955 16.0745 79.1607 16.0745C78.5362 16.0745 77.9951 16.2613 77.5372 16.635C77.0792 17.0087 76.769 17.4966 76.6025 18.0987Z" fill="white"/>
<path d="M79.5822 24C78.5518 24 77.636 23.782 76.8347 23.346C76.0437 22.91 75.4245 22.3132 74.977 21.5554C74.5399 20.7872 74.3214 19.9205 74.3214 18.9551C74.3214 18.0312 74.5347 17.2059 74.9614 16.4793C75.3985 15.7423 75.9865 15.161 76.7254 14.7354C77.4643 14.3098 78.2813 14.097 79.1763 14.097C80.0921 14.097 80.9091 14.3098 81.6272 14.7354C82.3557 15.1506 82.9333 15.7163 83.36 16.4326C83.7867 17.1488 84 17.9637 84 18.8772V19.643H78.1772C77.917 19.643 77.6793 19.643 77.3387 19.643C76.9981 19.643 76.9981 19.643 76.6575 19.643C76.7824 20.3177 77.1157 20.8391 77.6464 21.2751C78.1772 21.7111 78.8433 21.9291 79.6446 21.9291C80.2378 21.9291 80.7738 21.8045 81.2525 21.5554C81.7312 21.3063 82.1267 20.9948 82.4389 20.6211L83.0009 22.91C82.5326 23.2734 82.007 23.5433 81.4242 23.7197C80.8414 23.9066 80.2274 24 79.5822 24ZM76.6025 18.0987C77.1571 18.0987 77.6315 18.0987 78.1519 18.0987H80.1657C80.4467 18.0987 80.766 18.0987 81.0078 18.0987C81.2663 18.0987 81.4899 18.0987 81.7106 18.0987C81.5545 17.4966 81.2421 16.9828 80.7842 16.6194C80.3367 16.2561 79.7955 16.0745 79.1607 16.0745C78.5362 16.0745 77.9951 16.2613 77.5372 16.635C77.0792 17.0087 76.769 17.4966 76.6025 18.0987Z" fill="white"/>
<path d="M63.9459 9.90304V0H67.376C68.1831 0 68.9155 0.123308 69.5731 0.369924C70.2382 0.616541 70.8099 0.958281 71.2882 1.39514C71.7739 1.82496 72.1476 2.32876 72.4091 2.90655C72.6707 3.48434 72.8014 4.35973 72.8014 5.01503C72.8014 5.67032 72.6707 6.28687 72.4091 6.86465C72.1476 7.44244 71.7739 8.05631 71.2882 8.49317C70.8099 8.92299 70.2382 9.2865 69.5731 9.53311C68.9155 9.77973 68.1831 9.90304 67.376 9.90304H63.9459ZM66.0386 7.94222C66.6066 7.94222 68.33 7.96873 68.7634 7.81372C69.1968 7.65166 69.4946 7.44596 69.7861 7.17116C70.085 6.88931 70.3092 6.56519 70.4586 6.19879C70.6156 5.83239 70.6904 5.37429 70.6904 4.95152C70.6904 4.52875 70.6156 3.93882 70.4586 3.57242C70.3092 3.19897 70.085 2.87484 69.7861 2.60004C69.4946 2.3182 69.1968 2.19338 68.7634 2.03836C68.33 1.88335 66.6066 1.80669 66.0386 1.80669V7.94222Z" fill="white"/>
</svg>
