<svg width="615" height="210" viewBox="0 0 615 210" fill="none" xmlns="http://www.w3.org/2000/svg">
<path d="M370.363 123.919C364.217 123.919 358.589 122.437 353.478 119.472C348.437 116.507 344.432 112.542 341.462 107.577C338.493 102.544 337.008 97.0274 337.008 91.0285C337.008 84.9606 338.493 79.4444 341.462 74.4798C344.432 69.5152 348.437 65.5504 353.478 62.5854C358.589 59.6204 364.217 58.1379 370.363 58.1379C374.714 58.1379 378.823 58.8619 382.69 60.3099C386.557 61.7579 389.976 63.861 392.945 66.6191L388.595 83.7884C386.868 80.8235 384.486 78.2722 381.447 76.1347C378.409 73.9282 374.887 72.8249 370.881 72.8249C367.428 72.8249 364.321 73.6523 361.558 75.3072C358.865 76.9621 356.724 79.1686 355.136 81.9267C353.547 84.6159 352.753 87.6498 352.753 91.0285C352.753 94.3383 353.547 97.3722 355.136 100.13C356.724 102.888 358.865 105.095 361.558 106.75C364.321 108.405 367.428 109.232 370.881 109.232C374.887 109.232 378.409 108.163 381.447 106.026C384.486 103.819 386.868 101.234 388.595 98.2686L392.945 115.438C389.976 118.196 386.557 120.299 382.69 121.747C378.823 123.195 374.714 123.919 370.363 123.919Z" fill="black"/>
<path d="M436.179 123.919C430.033 123.919 424.405 122.437 419.294 119.472C414.253 116.507 410.248 112.542 407.278 107.577C404.309 102.613 402.824 97.0964 402.824 91.0285C402.824 84.9606 404.309 79.4444 407.278 74.4798C410.248 69.5152 414.253 65.5504 419.294 62.5854C424.405 59.6204 429.998 58.1379 436.076 58.1379C442.291 58.1379 447.919 59.6204 452.96 62.5854C458.002 65.5504 462.007 69.5152 464.977 74.4798C468.015 79.3754 469.534 84.8917 469.534 91.0285C469.534 97.0274 468.015 102.544 464.977 107.577C462.007 112.542 458.002 116.507 452.96 119.472C447.919 122.437 442.325 123.919 436.179 123.919ZM436.076 109.232C439.459 109.232 442.498 108.405 445.191 106.75C447.885 105.095 450.025 102.888 451.614 100.13C453.202 97.3722 453.996 94.3383 453.996 91.0285C453.996 87.6498 453.202 84.6159 451.614 81.9267C450.025 79.1686 447.885 76.9621 445.191 75.3072C442.498 73.6523 439.459 72.8249 436.076 72.8249C432.761 72.8249 429.757 73.6523 427.063 75.3072C424.37 76.9621 422.229 79.1686 420.641 81.9267C419.053 84.6159 418.258 87.6498 418.258 91.0285C418.258 94.3383 419.053 97.3722 420.641 100.13C422.229 102.888 424.37 105.095 427.063 106.75C429.757 108.405 432.761 109.232 436.076 109.232Z" fill="black"/>
<path d="M585.685 123.919C578.848 123.919 572.771 122.471 567.453 119.575C562.205 116.679 558.096 112.714 555.126 107.681C552.226 102.578 550.776 96.8206 550.776 90.4079C550.776 84.2711 552.191 78.7893 555.023 73.9626C557.923 69.067 561.825 65.2056 566.728 62.3785C571.631 59.5514 577.052 58.1379 582.991 58.1379C589.069 58.1379 594.49 59.5514 599.255 62.3785C604.089 65.1366 607.922 68.8946 610.753 73.6523C613.584 78.4101 615 83.8229 615 89.8908V94.9776H576.362C574.635 94.9776 573.058 94.9776 570.798 94.9776C568.538 94.9776 568.538 94.9776 566.278 94.9776C567.107 99.4596 569.318 102.923 572.84 105.819C576.362 108.715 580.782 110.163 586.099 110.163C590.035 110.163 593.592 109.336 596.769 107.681C599.945 106.026 602.569 103.957 604.641 101.475L608.37 116.679C605.263 119.092 601.775 120.885 597.908 122.057C594.041 123.299 589.966 123.919 585.685 123.919ZM565.912 84.7193C569.593 84.7193 572.741 84.7193 576.194 84.7193H589.557C591.421 84.7193 593.54 84.7193 595.145 84.7193C596.86 84.7193 598.344 84.7193 599.809 84.7193C598.773 80.72 596.699 77.3069 593.661 74.8935C590.691 72.4801 587.1 71.2735 582.888 71.2735C578.744 71.2735 575.153 72.5146 572.115 74.9969C569.076 77.4792 567.017 80.72 565.912 84.7193Z" fill="black"/>
<path d="M370.613 210C364.467 210 358.839 208.518 353.729 205.553C348.687 202.588 344.682 198.623 341.712 193.658C338.743 188.625 337.258 183.108 337.258 177.109C337.258 171.042 338.743 165.525 341.712 160.561C344.682 155.596 348.687 151.631 353.729 148.666C358.839 145.701 364.467 144.219 370.613 144.219C374.964 144.219 379.073 144.943 382.94 146.391C386.808 147.839 390.226 149.942 393.195 152.7L388.845 169.869C387.118 166.904 384.736 164.353 381.697 162.216C378.659 160.009 375.137 158.906 371.131 158.906C367.678 158.906 364.571 159.733 361.808 161.388C359.115 163.043 356.974 165.25 355.386 168.008C353.798 170.697 353.003 173.731 353.003 177.109C353.003 180.419 353.798 183.453 355.386 186.211C356.974 188.969 359.115 191.176 361.808 192.831C364.571 194.486 367.678 195.313 371.131 195.313C375.137 195.313 378.659 194.244 381.697 192.107C384.736 189.9 387.118 187.314 388.845 184.35L393.195 201.519C390.226 204.277 386.808 206.38 382.94 207.828C379.073 209.276 374.964 210 370.613 210Z" fill="black"/>
<path d="M432.456 208.86C426.793 208.86 421.614 207.412 416.918 204.516C412.222 201.551 408.458 197.62 405.626 192.725C402.864 187.76 401.483 182.313 401.483 176.383C401.483 170.453 402.864 165.04 405.626 160.145C408.458 155.18 412.222 151.25 416.918 148.354C421.614 145.389 426.793 143.906 432.456 143.906C436.53 143.906 440.294 144.63 443.747 146.078C447.2 147.526 450.135 149.56 452.552 152.18V145.354L468.194 145.251V207.308L452.552 207.412V200.585C450.135 203.137 447.2 205.171 443.747 206.688C440.294 208.136 436.53 208.86 432.456 208.86ZM434.424 194.483C437.739 194.483 440.708 193.656 443.332 192.001C446.026 190.346 448.167 188.174 449.755 185.485C451.343 182.727 452.137 179.693 452.137 176.383C452.137 173.073 451.343 170.074 449.755 167.385C448.167 164.626 446.026 162.42 443.332 160.765C440.708 159.11 437.773 158.283 434.527 158.283C431.213 158.283 428.209 159.11 425.515 160.765C422.891 162.42 420.785 164.626 419.197 167.385C417.608 170.074 416.814 173.073 416.814 176.383C416.814 179.693 417.608 182.727 419.197 185.485C420.785 188.174 422.891 190.346 425.515 192.001C428.209 193.656 431.178 194.483 434.424 194.483Z" fill="black"/>
<path d="M513.895 209.863L480.558 146.081H498.686L509.148 167.801C510.115 169.663 511.013 171.524 511.841 173.386C512.67 175.248 513.499 177.42 514.327 179.902C515.156 177.42 515.985 175.248 516.813 173.386C517.642 171.524 518.54 169.663 519.507 167.801L529.969 146.081H547.268L513.895 209.863Z" fill="black"/>
<path d="M585.685 123.919C578.848 123.919 572.771 122.471 567.453 119.575C562.205 116.679 558.096 112.714 555.126 107.681C552.226 102.578 550.776 96.8206 550.776 90.4079C550.776 84.2711 552.191 78.7893 555.023 73.9626C557.923 69.067 561.825 65.2056 566.728 62.3785C571.631 59.5514 577.052 58.1379 582.991 58.1379C589.069 58.1379 594.49 59.5514 599.255 62.3785C604.089 65.1366 607.922 68.8946 610.753 73.6523C613.584 78.4101 615 83.8229 615 89.8908V94.9776H576.362C574.635 94.9776 573.058 94.9776 570.798 94.9776C568.538 94.9776 568.538 94.9776 566.278 94.9776C567.107 99.4596 569.318 102.923 572.84 105.819C576.362 108.715 580.782 110.163 586.099 110.163C590.035 110.163 593.592 109.336 596.769 107.681C599.945 106.026 602.569 103.957 604.641 101.475L608.37 116.679C605.263 119.092 601.775 120.885 597.908 122.057C594.041 123.299 589.966 123.919 585.685 123.919ZM565.912 84.7193C569.593 84.7193 572.741 84.7193 576.194 84.7193H589.557C591.421 84.7193 593.54 84.7193 595.145 84.7193C596.86 84.7193 598.344 84.7193 599.809 84.7193C598.773 80.72 596.699 77.3069 593.661 74.8935C590.691 72.4801 587.1 71.2735 582.888 71.2735C578.744 71.2735 575.153 72.5146 572.115 74.9969C569.076 77.4792 567.017 80.72 565.912 84.7193Z" fill="black"/>
<path d="M585.685 209.863C578.848 209.863 572.771 208.415 567.453 205.519C562.205 202.623 558.096 198.658 555.126 193.625C552.226 188.522 550.776 182.765 550.776 176.352C550.776 170.215 552.191 164.733 555.023 159.907C557.923 155.011 561.825 151.15 566.728 148.322C571.631 145.495 577.052 144.082 582.991 144.082C589.068 144.082 594.49 145.495 599.255 148.322C604.089 151.081 607.922 154.839 610.753 159.596C613.584 164.354 615 169.767 615 175.835V180.922H576.362C574.635 180.922 573.058 180.922 570.798 180.922C568.538 180.922 568.538 180.922 566.278 180.922C567.106 185.404 569.318 188.867 572.84 191.763C576.362 194.659 580.781 196.107 586.099 196.107C590.035 196.107 593.592 195.279 596.769 193.625C599.945 191.97 602.569 189.901 604.641 187.419L608.37 202.623C605.263 205.036 601.775 206.829 597.908 208.001C594.041 209.242 589.966 209.863 585.685 209.863ZM565.912 170.663C569.593 170.663 572.741 170.663 576.194 170.663H589.557C591.421 170.663 593.54 170.663 595.145 170.663C596.86 170.663 598.344 170.663 599.809 170.663C598.773 166.664 596.699 163.251 593.661 160.837C590.691 158.424 587.1 157.217 582.888 157.217C578.744 157.217 575.153 158.459 572.115 160.941C569.076 163.423 567.017 166.664 565.912 170.663Z" fill="black"/>
<path d="M585.685 209.863C578.848 209.863 572.771 208.415 567.453 205.519C562.205 202.623 558.096 198.658 555.126 193.625C552.226 188.522 550.776 182.765 550.776 176.352C550.776 170.215 552.191 164.733 555.023 159.907C557.923 155.011 561.825 151.15 566.728 148.322C571.631 145.495 577.052 144.082 582.991 144.082C589.068 144.082 594.49 145.495 599.255 148.322C604.089 151.081 607.922 154.839 610.753 159.596C613.584 164.354 615 169.767 615 175.835V180.922H576.362C574.635 180.922 573.058 180.922 570.798 180.922C568.538 180.922 568.538 180.922 566.278 180.922C567.106 185.404 569.318 188.867 572.84 191.763C576.362 194.659 580.781 196.107 586.099 196.107C590.035 196.107 593.592 195.279 596.769 193.625C599.945 191.97 602.569 189.901 604.641 187.419L608.37 202.623C605.263 205.036 601.775 206.829 597.908 208.001C594.041 209.242 589.966 209.863 585.685 209.863ZM565.912 170.663C569.593 170.663 572.741 170.663 576.194 170.663H589.557C591.421 170.663 593.54 170.663 595.145 170.663C596.86 170.663 598.344 170.663 599.809 170.663C598.773 166.664 596.699 163.251 593.661 160.837C590.691 158.424 587.1 157.217 582.888 157.217C578.744 157.217 575.153 158.459 572.115 160.941C569.076 163.423 567.017 166.664 565.912 170.663Z" fill="black"/>
<path d="M481.927 123.919V58.1379H504.689C510.044 58.1379 514.904 58.957 519.268 60.5951C523.681 62.2333 527.474 64.5033 530.648 67.4052C533.871 70.2603 536.351 73.6068 538.086 77.4448C539.822 81.2827 540.69 87.0976 540.69 91.4504C540.69 95.8032 539.822 99.8986 538.086 103.737C536.351 107.575 533.871 111.652 530.648 114.554C527.474 117.409 523.681 119.824 519.268 121.462C514.904 123.1 510.044 123.919 504.689 123.919H481.927ZM495.814 110.894C499.583 110.894 511.019 111.07 513.895 110.041C516.771 108.964 518.747 107.598 520.681 105.773C522.664 103.9 524.152 101.747 525.144 99.3136C526.185 96.8797 526.682 93.8368 526.682 91.0285C526.682 88.2202 526.185 84.3016 525.144 81.8678C524.152 79.3872 522.664 77.2341 520.681 75.4088C518.747 73.5366 516.771 72.7075 513.895 71.6778C511.019 70.6481 499.583 70.1389 495.814 70.1389V110.894Z" fill="black"/>
<path d="M370.363 123.919C364.217 123.919 358.589 122.437 353.478 119.472C348.437 116.507 344.432 112.542 341.462 107.577C338.493 102.544 337.008 97.0274 337.008 91.0285C337.008 84.9606 338.493 79.4444 341.462 74.4798C344.432 69.5152 348.437 65.5504 353.478 62.5854C358.589 59.6204 364.217 58.1379 370.363 58.1379C374.714 58.1379 378.823 58.8619 382.69 60.3099C386.557 61.7579 389.976 63.861 392.945 66.6191L388.595 83.7884C386.868 80.8235 384.486 78.2722 381.447 76.1347C378.409 73.9282 374.887 72.8249 370.881 72.8249C367.428 72.8249 364.321 73.6523 361.558 75.3072C358.865 76.9621 356.724 79.1686 355.136 81.9267C353.547 84.6159 352.753 87.6498 352.753 91.0285C352.753 94.3383 353.547 97.3722 355.136 100.13C356.724 102.888 358.865 105.095 361.558 106.75C364.321 108.405 367.428 109.232 370.881 109.232C374.887 109.232 378.409 108.163 381.447 106.026C384.486 103.819 386.868 101.234 388.595 98.2686L392.945 115.438C389.976 118.196 386.557 120.299 382.69 121.747C378.823 123.195 374.714 123.919 370.363 123.919Z" fill="black"/>
<path d="M436.179 123.919C430.033 123.919 424.405 122.437 419.294 119.472C414.253 116.507 410.248 112.542 407.278 107.577C404.309 102.613 402.824 97.0964 402.824 91.0285C402.824 84.9606 404.309 79.4444 407.278 74.4798C410.248 69.5152 414.253 65.5504 419.294 62.5854C424.405 59.6204 429.998 58.1379 436.076 58.1379C442.291 58.1379 447.919 59.6204 452.96 62.5854C458.002 65.5504 462.007 69.5152 464.977 74.4798C468.015 79.3754 469.534 84.8917 469.534 91.0285C469.534 97.0274 468.015 102.544 464.977 107.577C462.007 112.542 458.002 116.507 452.96 119.472C447.919 122.437 442.325 123.919 436.179 123.919ZM436.076 109.232C439.459 109.232 442.498 108.405 445.191 106.75C447.885 105.095 450.025 102.888 451.614 100.13C453.202 97.3722 453.996 94.3383 453.996 91.0285C453.996 87.6498 453.202 84.6159 451.614 81.9267C450.025 79.1686 447.885 76.9621 445.191 75.3072C442.498 73.6523 439.459 72.8249 436.076 72.8249C432.761 72.8249 429.757 73.6523 427.063 75.3072C424.37 76.9621 422.229 79.1686 420.641 81.9267C419.053 84.6159 418.258 87.6498 418.258 91.0285C418.258 94.3383 419.053 97.3722 420.641 100.13C422.229 102.888 424.37 105.095 427.063 106.75C429.757 108.405 432.761 109.232 436.076 109.232Z" fill="black"/>
<path d="M481.927 123.919V58.1379H504.689C510.044 58.1379 514.904 58.957 519.268 60.5951C523.681 62.2333 527.474 64.5033 530.648 67.4052C533.871 70.2603 536.351 73.6068 538.086 77.4448C539.822 81.2827 540.69 87.0976 540.69 91.4504C540.69 95.8032 539.822 99.8986 538.086 103.737C536.351 107.575 533.871 111.652 530.648 114.554C527.474 117.409 523.681 119.824 519.268 121.462C514.904 123.1 510.044 123.919 504.689 123.919H481.927ZM495.814 110.894C499.583 110.894 511.019 111.07 513.895 110.041C516.771 108.964 518.747 107.598 520.681 105.773C522.664 103.9 524.152 101.747 525.144 99.3136C526.185 96.8797 526.682 93.8368 526.682 91.0285C526.682 88.2202 526.185 84.3016 525.144 81.8678C524.152 79.3872 522.664 77.2341 520.681 75.4088C518.747 73.5366 516.771 72.7075 513.895 71.6778C511.019 70.6481 499.583 70.1389 495.814 70.1389V110.894Z" fill="black"/>
<path d="M370.613 210C364.467 210 358.839 208.518 353.729 205.553C348.687 202.588 344.682 198.623 341.712 193.658C338.743 188.625 337.258 183.108 337.258 177.109C337.258 171.042 338.743 165.525 341.712 160.561C344.682 155.596 348.687 151.631 353.729 148.666C358.839 145.701 364.467 144.219 370.613 144.219C374.964 144.219 379.073 144.943 382.94 146.391C386.808 147.839 390.226 149.942 393.195 152.7L388.845 169.869C387.118 166.904 384.736 164.353 381.697 162.216C378.659 160.009 375.137 158.906 371.131 158.906C367.678 158.906 364.571 159.733 361.808 161.388C359.115 163.043 356.974 165.25 355.386 168.008C353.798 170.697 353.003 173.731 353.003 177.109C353.003 180.419 353.798 183.453 355.386 186.211C356.974 188.969 359.115 191.176 361.808 192.831C364.571 194.486 367.678 195.313 371.131 195.313C375.137 195.313 378.659 194.244 381.697 192.107C384.736 189.9 387.118 187.314 388.845 184.35L393.195 201.519C390.226 204.277 386.808 206.38 382.94 207.828C379.073 209.276 374.964 210 370.613 210Z" fill="black"/>
<path d="M432.456 208.86C426.793 208.86 421.614 207.412 416.918 204.516C412.222 201.551 408.458 197.62 405.626 192.725C402.864 187.76 401.483 182.313 401.483 176.383C401.483 170.453 402.864 165.04 405.626 160.145C408.458 155.18 412.222 151.25 416.918 148.354C421.614 145.389 426.793 143.906 432.456 143.906C436.53 143.906 440.294 144.63 443.747 146.078C447.2 147.526 450.135 149.56 452.552 152.18V145.354L468.194 145.251V207.308L452.552 207.412V200.585C450.135 203.137 447.2 205.171 443.747 206.688C440.294 208.136 436.53 208.86 432.456 208.86ZM434.424 194.483C437.739 194.483 440.708 193.656 443.332 192.001C446.026 190.346 448.167 188.174 449.755 185.485C451.343 182.727 452.137 179.693 452.137 176.383C452.137 173.073 451.343 170.074 449.755 167.385C448.167 164.626 446.026 162.42 443.332 160.765C440.708 159.11 437.773 158.283 434.527 158.283C431.213 158.283 428.209 159.11 425.515 160.765C422.891 162.42 420.785 164.626 419.197 167.385C417.608 170.074 416.814 173.073 416.814 176.383C416.814 179.693 417.608 182.727 419.197 185.485C420.785 188.174 422.891 190.346 425.515 192.001C428.209 193.656 431.178 194.483 434.424 194.483Z" fill="black"/>
<path d="M513.895 209.863L480.558 146.081H498.686L509.148 167.801C510.115 169.663 511.013 171.524 511.841 173.386C512.67 175.248 513.499 177.42 514.327 179.902C515.156 177.42 515.985 175.248 516.813 173.386C517.642 171.524 518.54 169.663 519.507 167.801L529.969 146.081H547.268L513.895 209.863Z" fill="black"/>
<path d="M230.775 207.595H288.848V156.606L180.105 16.389L116.807 0V61.9142L230.775 207.595Z" fill="#5F20FE"/>
<path d="M173.153 209.764L194.353 183.337L172.708 155.259H111.766L88.3535 181.685L111.766 209.764H173.153Z" fill="#5F20FE"/>
<path d="M50.9731 207.595H0V160.248L59.4686 91.0503L112.141 80.1242V136.575L50.9731 207.595Z" fill="#5F20FE"/>
</svg>
